<svg xmlns="http://www.w3.org/2000/svg" viewBox="2722.765 415.537 112.911 90.435">
  <defs>
    <style>
      .cls-1 {
        fill: #fff;
        stroke: #95989a;
        stroke-width: 5px;
      }
    </style>
  </defs>
  <g id="Group_9" data-name="Group 9" transform="translate(2502 -127)">
    <path id="Path_9" data-name="Path 9" class="cls-1" d="M2764.532,414.211c-3.341-6.314-13.025-3.313-13.025,10.448s1.472,17.867-1.5,19.736-1.841,4.474-10.788,4.474c-1.869,10.788,4.077,36.1,10.788,38.736,25.343,2.973,45.843,6.314,61.841-8.948,6.062-5.912,4.842-11.524,0-17.131,7.843-8.948,1.132-9.724-1.5-14.894,5.238-5.578,5.036-14.554,0-16.395-14.894-2.973-20.1,2.633-32.393,8.948C2754.849,444.027,2770.875,425,2764.532,414.211Z" transform="translate(-2484.807 134)"/>
    <path id="Path_10" data-name="Path 10" class="cls-1" d="M2606.6,519.542c5.578-4.587,17.131-6.456,16.112,0,2.52,14.781,10.066,32.959,13.422,43.946s-18.462,2.874-26.192,3.624S2599.15,520.165,2606.6,519.542Z" transform="translate(-2379 61.203)"/>
  </g>
</svg>
