<svg xmlns="http://www.w3.org/2000/svg" viewBox="2892 391 470 202">
  <defs>
    <style>
      .cls-1 {
        fill: #ff1977;
      }

      .cls-2 {
        fill: #19d0ff;
      }

      .cls-3 {
        fill: #fff;
      }

      .cls-4 {
        fill: #95989a;
        font-size: 65px;
        font-family: SegoeUI, Segoe UI;
      }
    </style>
  </defs>
  <g id="Group_8" data-name="Group 8" transform="translate(2407 -134)">
    <path id="Subtraction_11" data-name="Subtraction 11" class="cls-1" d="M-2160.5,327a96.731,96.731,0,0,1-71.369-31.546A95.848,95.848,0,0,0-2214,239.5a96.265,96.265,0,0,0-25.132-64.953A96.76,96.76,0,0,1-2160.5,134a96.609,96.609,0,0,1,96.5,96.5A96.609,96.609,0,0,1-2160.5,327Z" transform="translate(2902 391)"/>
    <circle id="Ellipse_21" data-name="Ellipse 21" class="cls-2" cx="96.5" cy="96.5" r="96.5" transform="translate(485 534)"/>
    <g id="Group_7" data-name="Group 7" transform="translate(298 43)">
      <path id="Path_9" data-name="Path 9" class="cls-3" d="M2764.532,414.211c-3.341-6.314-13.025-3.313-13.025,10.448s1.472,17.867-1.5,19.736-1.841,4.474-10.788,4.474c-1.869,10.788,4.077,36.1,10.788,38.736,25.343,2.973,45.843,6.314,61.841-8.948,6.062-5.912,4.842-11.524,0-17.131,7.843-8.948,1.132-9.724-1.5-14.894,5.238-5.578,5.036-14.554,0-16.395-14.894-2.973-20.1,2.633-32.393,8.948C2754.849,444.027,2770.875,425,2764.532,414.211Z" transform="translate(-2484.807 134)"/>
      <path id="Path_10" data-name="Path 10" class="cls-3" d="M2606.6,519.542c5.578-4.587,17.131-6.456,16.112,0,2.52,14.781,10.066,32.959,13.422,43.946s-18.462,2.874-26.192,3.624S2599.15,520.165,2606.6,519.542Z" transform="translate(-2379 61.203)"/>
    </g>
    <path id="Path_11" data-name="Path 11" class="cls-3" d="M2556.685,451.916s-48.81-25.2-50.785-79.125c0-19.781,30.345-42.106,50.785,0,20.081-40.55,50.815-19.781,50.815,0C2606.692,419.656,2556.685,451.916,2556.685,451.916Z" transform="translate(-1814 224)"/>
    <text id="_100" data-name="100" class="cls-4" transform="translate(849 656)"><tspan x="0" y="0">100</tspan></text>
  </g>
</svg>
