<svg xmlns="http://www.w3.org/2000/svg" viewBox="3125 391 227 377.1">
  <defs>
    <style>
      .cls-1 {
        fill: #f22d2d;
        stroke: #313131;
        stroke-width: 5px;
      }
    </style>
  </defs>
  <path id="Subtraction_10" data-name="Subtraction 10" class="cls-1" d="M-2296,506.1c-36.058,0-64.653-62.517-78.489-99.783C-2395.833,348.83-2407,287.183-2407,256c0-67.271,49.794-122,111-122s111,54.729,111,122c0,31.184-11.167,92.83-32.511,150.317C-2231.347,443.583-2259.943,506.1-2296,506.1Zm0-309.6a41.547,41.547,0,0,0-41.5,41.5,41.547,41.547,0,0,0,41.5,41.5,41.547,41.547,0,0,0,41.5-41.5A41.547,41.547,0,0,0-2296,196.5Z" transform="translate(5534.5 259.5)"/>
</svg>
