<svg xmlns="http://www.w3.org/2000/svg" viewBox="3532.5 32.5 444 480">
  <defs>
    <style>
      .cls-1 {
        fill: #fff;
      }
    </style>
  </defs>
  <path id="Subtraction_2" data-name="Subtraction 2" class="cls-1" d="M-2062.5,614h-245a99.612,99.612,0,0,1-99.5-99.5v-281a99.612,99.612,0,0,1,99.5-99.5h245a99.613,99.613,0,0,1,99.5,99.5v281A99.613,99.613,0,0,1-2062.5,614ZM-2390,358l0,138.5a99.612,99.612,0,0,0,99.5,99.5h211a99.612,99.612,0,0,0,99.5-99.5V358h-410Zm159-75.5a12.514,12.514,0,0,0-12.5,12.5,12.514,12.514,0,0,0,12.5,12.5h207a12.514,12.514,0,0,0,12.5-12.5,12.514,12.514,0,0,0-12.5-12.5Zm-90-90a32.537,32.537,0,0,0-32.5,32.5,32.537,32.537,0,0,0,32.5,32.5,32.537,32.537,0,0,0,32.5-32.5A32.537,32.537,0,0,0-2321,192.5Zm90,20a12.514,12.514,0,0,0-12.5,12.5,12.514,12.514,0,0,0,12.5,12.5h207a12.514,12.514,0,0,0,12.5-12.5,12.514,12.514,0,0,0-12.5-12.5Z" transform="translate(5939.5 -101.5)"/>
</svg>
