<svg xmlns="http://www.w3.org/2000/svg" viewBox="3204.5 245.5 556.699 524.5">
  <defs>
    <style>
      .cls-1 {
        fill: #fff;
      }
    </style>
  </defs>
  <g id="Group_2" data-name="Group 2" transform="translate(2407 -134)">
    <path id="Union_2" data-name="Union 2" class="cls-1" d="M-2122.8,598c-209.7,0-282.2,11.8-284.2-88.2,13.8-62.7,72.5-33.3,84.3-109.8,1.108-117.259,62.324-162.944,116.716-180.368q-.015-.815-.016-1.632a84.1,84.1,0,0,1,84-84,84.1,84.1,0,0,1,84,84q0,3.973-.365,7.859C-1988.889,246.5-1936.422,293.474-1938.5,400c0,105.8,58.8,41.2,88.2,109.8-2.926,79.382-57.778,89.3-157.84,89.3C-2041.44,599.1-2079.728,598-2122.8,598Zm49.709-383.006A49.063,49.063,0,0,0-2122,169a49.077,49.077,0,0,0-48.585,42.6c27.57-3.908,47.784-1.7,47.784-1.7s1.5-.078,4.231-.078A218.327,218.327,0,0,1-2073.091,214.994Z" transform="translate(3204.5 245.5)"/>
    <path id="Rectangle_10" data-name="Rectangle 10" class="cls-1" d="M0,0H92a0,0,0,0,1,0,0V.494A40.506,40.506,0,0,1,51.494,41H41A41,41,0,0,1,0,0V0A0,0,0,0,1,0,0Z" transform="translate(1017 863)"/>
  </g>
</svg>
