<svg xmlns="http://www.w3.org/2000/svg" viewBox="3191.5 316.5 419.091 429.253">
  <defs>
    <style>
      .cls-1 {
        fill: #6e6e6e;
      }
    </style>
  </defs>
  <path id="Union_3" data-name="Union 3" class="cls-1" d="M-2042.859,553.8l-118.29-139.282A154.17,154.17,0,0,1-2252,444c-85.468,0-155-69.533-155-155s69.532-155,155-155,155,69.532,155,155a154.15,154.15,0,0,1-29.405,90.74L-1997.2,508.947a31.712,31.712,0,0,1,0,44.849,32.187,32.187,0,0,1-22.831,9.457A32.187,32.187,0,0,1-2042.859,553.8ZM-2376,289a124.141,124.141,0,0,0,124,124,124.141,124.141,0,0,0,124-124,124.141,124.141,0,0,0-124-124A124.141,124.141,0,0,0-2376,289Z" transform="translate(5598.5 182.5)"/>
</svg>
